<svg width="3138" height="669" viewBox="0 0 3138 669" fill="none" xmlns="http://www.w3.org/2000/svg">
<path d="M869.399 539.992C848.066 539.992 827.932 535.859 808.999 527.592C790.332 519.059 773.799 507.459 759.399 492.792C744.999 477.859 733.666 460.792 725.399 441.592C717.132 422.126 712.999 401.459 712.999 379.592C712.999 357.992 716.999 337.592 724.999 318.392C732.999 298.926 744.066 281.859 758.199 267.192C772.599 252.259 789.266 240.659 808.199 232.392C827.132 223.859 847.532 219.592 869.399 219.592C887.799 219.592 905.266 222.526 921.799 228.392C938.332 234.259 953.799 243.192 968.199 255.192C970.599 257.059 971.799 259.726 971.799 263.192C971.799 266.392 970.732 269.326 968.599 271.992C966.466 274.392 963.532 275.592 959.799 275.592C958.732 275.592 957.666 275.459 956.599 275.192C955.532 274.659 954.466 274.126 953.399 273.592C952.332 272.792 951.132 271.859 949.799 270.792C939.132 261.192 926.999 254.259 913.399 249.992C899.799 245.726 885.132 243.592 869.399 243.592C851.532 243.592 834.599 247.326 818.599 254.792C802.599 261.992 788.466 271.992 776.199 284.792C763.932 297.326 754.332 311.726 747.399 327.992C740.466 344.259 736.999 361.459 736.999 379.592C736.999 398.259 740.466 415.859 747.399 432.392C754.332 448.926 763.799 463.459 775.799 475.992C788.066 488.526 802.199 498.392 818.199 505.592C834.199 512.526 851.266 515.992 869.399 515.992C885.132 515.992 899.799 513.592 913.399 508.792C927.266 503.992 940.199 496.659 952.199 486.792C954.332 484.926 956.866 484.259 959.799 484.792C962.732 485.326 965.266 486.659 967.399 488.792C969.532 490.926 970.599 493.726 970.599 497.192C970.599 498.792 970.466 500.259 970.199 501.592C969.932 502.926 969.132 504.259 967.799 505.592C954.732 518.659 939.532 527.726 922.199 532.792C905.132 537.592 887.532 539.992 869.399 539.992ZM1112.42 537.992C1091.36 537.992 1072.56 533.326 1056.02 523.992C1039.76 514.392 1026.96 501.192 1017.62 484.392C1008.29 467.592 1003.62 448.392 1003.62 426.792C1003.62 404.926 1008.02 385.726 1016.82 369.192C1025.62 352.392 1037.76 339.192 1053.22 329.592C1068.69 319.992 1086.42 315.192 1106.42 315.192C1126.16 315.192 1143.62 319.859 1158.82 329.192C1174.02 338.259 1185.89 350.926 1194.42 367.192C1202.96 383.192 1207.22 401.726 1207.22 422.792C1207.22 426.259 1206.16 429.059 1204.02 431.192C1201.89 433.059 1199.09 433.992 1195.62 433.992H1019.62V413.192H1202.02L1184.42 426.392C1184.96 409.059 1182.02 393.726 1175.62 380.392C1169.22 367.059 1160.02 356.659 1148.02 349.192C1136.29 341.459 1122.42 337.592 1106.42 337.592C1091.22 337.592 1077.62 341.459 1065.62 349.192C1053.89 356.659 1044.56 367.059 1037.62 380.392C1030.96 393.726 1027.62 409.192 1027.62 426.792C1027.62 444.126 1031.22 459.459 1038.42 472.792C1045.62 486.126 1055.62 496.659 1068.42 504.392C1081.22 511.859 1095.89 515.592 1112.42 515.592C1122.82 515.592 1133.22 513.859 1143.62 510.392C1154.29 506.659 1162.69 501.859 1168.82 495.992C1170.96 493.859 1173.49 492.792 1176.42 492.792C1179.62 492.526 1182.29 493.326 1184.42 495.192C1187.36 497.592 1188.82 500.259 1188.82 503.192C1189.09 506.126 1187.89 508.792 1185.22 511.192C1176.69 518.926 1165.49 525.326 1151.62 530.392C1138.02 535.459 1124.96 537.992 1112.42 537.992ZM1448.57 535.992C1445.11 535.992 1442.17 534.926 1439.77 532.792C1437.64 530.392 1436.57 527.459 1436.57 523.992V416.392C1436.57 398.792 1433.11 384.259 1426.17 372.792C1419.51 361.326 1410.31 352.792 1398.57 347.192C1387.11 341.326 1374.04 338.392 1359.37 338.392C1344.97 338.392 1332.04 341.192 1320.57 346.792C1309.11 352.126 1300.04 359.592 1293.37 369.192C1286.71 378.792 1283.37 389.592 1283.37 401.592H1263.37C1264.44 385.059 1269.37 370.259 1278.17 357.192C1286.97 343.859 1298.44 333.459 1312.57 325.992C1326.71 318.259 1342.31 314.392 1359.37 314.392C1378.57 314.392 1395.77 318.392 1410.97 326.392C1426.44 334.126 1438.57 345.592 1447.37 360.792C1456.17 375.726 1460.57 394.259 1460.57 416.392V523.992C1460.57 527.459 1459.37 530.392 1456.97 532.792C1454.84 534.926 1452.04 535.992 1448.57 535.992ZM1271.37 535.992C1267.91 535.992 1264.97 534.926 1262.57 532.792C1260.44 530.392 1259.37 527.459 1259.37 523.992V329.192C1259.37 325.459 1260.44 322.526 1262.57 320.392C1264.97 318.259 1267.91 317.192 1271.37 317.192C1275.11 317.192 1278.04 318.259 1280.17 320.392C1282.31 322.526 1283.37 325.459 1283.37 329.192V523.992C1283.37 527.459 1282.31 530.392 1280.17 532.792C1278.04 534.926 1275.11 535.992 1271.37 535.992ZM1618.11 535.992C1603.45 535.726 1590.38 532.392 1578.91 525.992C1567.45 519.326 1558.51 510.259 1552.11 498.792C1545.71 487.059 1542.51 473.859 1542.51 459.192V259.992C1542.51 256.259 1543.58 253.326 1545.71 251.192C1548.11 248.792 1551.05 247.592 1554.51 247.592C1558.25 247.592 1561.18 248.792 1563.31 251.192C1565.71 253.326 1566.91 256.259 1566.91 259.992V459.192C1566.91 474.659 1571.71 487.326 1581.31 497.192C1590.91 506.792 1603.31 511.592 1618.51 511.592H1627.31C1631.05 511.592 1633.98 512.792 1636.11 515.192C1638.51 517.326 1639.71 520.259 1639.71 523.992C1639.71 527.459 1638.51 530.392 1636.11 532.792C1633.98 534.926 1631.05 535.992 1627.31 535.992H1618.11ZM1511.31 346.792C1508.11 346.792 1505.45 345.859 1503.31 343.992C1501.45 341.859 1500.51 339.192 1500.51 335.992C1500.51 332.792 1501.45 330.259 1503.31 328.392C1505.45 326.259 1508.11 325.192 1511.31 325.192H1619.71C1622.91 325.192 1625.45 326.259 1627.31 328.392C1629.45 330.259 1630.51 332.792 1630.51 335.992C1630.51 339.192 1629.45 341.859 1627.31 343.992C1625.45 345.859 1622.91 346.792 1619.71 346.792H1511.31ZM1697.84 402.392C1699.44 385.326 1704.11 370.259 1711.84 357.192C1719.58 343.859 1729.58 333.459 1741.84 325.992C1754.11 318.526 1767.71 314.792 1782.64 314.792C1792.78 314.792 1800.64 315.992 1806.24 318.392C1811.84 320.792 1813.98 325.059 1812.64 331.192C1811.84 335.192 1809.98 337.592 1807.04 338.392C1804.11 339.192 1800.51 339.326 1796.24 338.792C1792.24 337.992 1787.71 337.592 1782.64 337.592C1769.31 337.592 1757.44 340.392 1747.04 345.992C1736.64 351.592 1728.51 359.326 1722.64 369.192C1716.78 378.792 1713.84 389.859 1713.84 402.392H1697.84ZM1701.84 535.992C1698.38 535.992 1695.44 534.926 1693.04 532.792C1690.91 530.392 1689.84 527.459 1689.84 523.992V329.192C1689.84 325.459 1690.91 322.526 1693.04 320.392C1695.44 318.259 1698.38 317.192 1701.84 317.192C1705.58 317.192 1708.51 318.259 1710.64 320.392C1712.78 322.526 1713.84 325.459 1713.84 329.192V523.992C1713.84 527.459 1712.78 530.392 1710.64 532.792C1708.51 534.926 1705.58 535.992 1701.84 535.992ZM1949.22 538.392C1927.88 538.392 1908.68 533.592 1891.62 523.992C1874.82 514.126 1861.48 500.792 1851.62 483.992C1842.02 466.926 1837.22 447.859 1837.22 426.792C1837.22 405.459 1842.02 386.392 1851.62 369.592C1861.48 352.526 1874.82 339.192 1891.62 329.592C1908.68 319.726 1927.88 314.792 1949.22 314.792C1970.55 314.792 1989.62 319.726 2006.42 329.592C2023.22 339.192 2036.42 352.526 2046.02 369.592C2055.88 386.392 2060.82 405.459 2060.82 426.792C2060.82 447.859 2055.88 466.926 2046.02 483.992C2036.42 500.792 2023.22 514.126 2006.42 523.992C1989.62 533.592 1970.55 538.392 1949.22 538.392ZM1949.22 515.992C1966.02 515.992 1980.95 512.126 1994.02 504.392C2007.35 496.392 2017.75 485.726 2025.22 472.392C2032.95 458.792 2036.82 443.459 2036.82 426.392C2036.82 409.592 2032.95 394.526 2025.22 381.192C2017.75 367.592 2007.35 356.926 1994.02 349.192C1980.95 341.192 1966.02 337.192 1949.22 337.192C1932.68 337.192 1917.75 341.192 1904.42 349.192C1891.08 356.926 1880.55 367.592 1872.82 381.192C1865.08 394.526 1861.22 409.726 1861.22 426.792C1861.22 443.592 1865.08 458.792 1872.82 472.392C1880.55 485.726 1891.08 496.392 1904.42 504.392C1917.75 512.126 1932.68 515.992 1949.22 515.992ZM2222.7 535.492C2213.04 535.492 2205.7 530.492 2200.7 520.492L2093.2 292.492C2090.54 287.159 2090.2 281.992 2092.2 276.992C2094.2 271.992 2098.2 268.159 2104.2 265.492C2109.2 262.826 2114.37 262.492 2119.7 264.492C2125.04 266.159 2129.04 269.492 2131.7 274.492L2233.7 494.492H2211.2L2311.7 274.492C2314.37 269.159 2318.54 265.659 2324.2 263.992C2329.87 262.326 2335.54 262.659 2341.2 264.992C2346.54 267.659 2350.2 271.659 2352.2 276.992C2354.2 281.992 2353.87 286.992 2351.2 291.992L2244.2 520.492C2239.54 530.492 2232.37 535.492 2222.7 535.492ZM2434.1 535.992C2427.1 535.992 2421.44 533.826 2417.1 529.492C2412.77 525.159 2410.6 519.659 2410.6 512.992V285.492C2410.6 278.492 2412.77 272.992 2417.1 268.992C2421.44 264.659 2427.1 262.492 2434.1 262.492C2440.77 262.492 2446.27 264.659 2450.6 268.992C2454.94 272.992 2457.1 278.492 2457.1 285.492V512.992C2457.1 519.659 2454.94 525.159 2450.6 529.492C2446.27 533.826 2440.77 535.992 2434.1 535.992ZM2433.6 214.992C2425.27 214.992 2418.1 211.992 2412.1 205.992C2406.1 199.992 2403.1 192.659 2403.1 183.992C2403.1 175.326 2406.1 168.159 2412.1 162.492C2418.44 156.492 2425.77 153.492 2434.1 153.492C2442.1 153.492 2449.1 156.492 2455.1 162.492C2461.44 168.159 2464.6 175.326 2464.6 183.992C2464.6 192.659 2461.6 199.992 2455.6 205.992C2449.6 211.992 2442.27 214.992 2433.6 214.992ZM2646.04 535.492C2636.38 535.492 2629.04 530.492 2624.04 520.492L2516.54 292.492C2513.88 287.159 2513.54 281.992 2515.54 276.992C2517.54 271.992 2521.54 268.159 2527.54 265.492C2532.54 262.826 2537.71 262.492 2543.04 264.492C2548.38 266.159 2552.38 269.492 2555.04 274.492L2657.04 494.492H2634.54L2735.04 274.492C2737.71 269.159 2741.88 265.659 2747.54 263.992C2753.21 262.326 2758.88 262.659 2764.54 264.992C2769.88 267.659 2773.54 271.659 2775.54 276.992C2777.54 281.992 2777.21 286.992 2774.54 291.992L2667.54 520.492C2662.88 530.492 2655.71 535.492 2646.04 535.492ZM2942.18 537.992C2915.51 537.992 2891.68 532.159 2870.68 520.492C2850.01 508.492 2833.68 492.159 2821.68 471.492C2810.01 450.492 2804.18 426.492 2804.18 399.492C2804.18 372.159 2810.01 348.159 2821.68 327.492C2833.68 306.492 2850.01 290.159 2870.68 278.492C2891.68 266.492 2915.51 260.492 2942.18 260.492C2968.85 260.492 2992.51 266.492 3013.18 278.492C3034.18 290.159 3050.51 306.492 3062.18 327.492C3074.18 348.159 3080.35 372.159 3080.68 399.492C3080.68 426.492 3074.68 450.492 3062.68 471.492C3050.68 492.159 3034.35 508.492 3013.68 520.492C2993.01 532.159 2969.18 537.992 2942.18 537.992ZM2942.18 496.992C2960.51 496.992 2976.68 492.826 2990.68 484.492C3004.68 476.159 3015.68 464.659 3023.68 449.992C3031.68 435.326 3035.68 418.492 3035.68 399.492C3035.68 380.492 3031.68 363.659 3023.68 348.992C3015.68 333.992 3004.68 322.326 2990.68 313.992C2976.68 305.659 2960.51 301.492 2942.18 301.492C2924.18 301.492 2908.01 305.659 2893.68 313.992C2879.68 322.326 2868.68 333.992 2860.68 348.992C2852.68 363.659 2848.68 380.492 2848.68 399.492C2848.68 418.492 2852.68 435.326 2860.68 449.992C2868.68 464.659 2879.68 476.159 2893.68 484.492C2908.01 492.826 2924.18 496.992 2942.18 496.992Z" fill="#12124A"/>
<path d="M869.399 539.992C848.066 539.992 827.932 535.859 808.999 527.592C790.332 519.059 773.799 507.459 759.399 492.792C744.999 477.859 733.666 460.792 725.399 441.592C717.132 422.126 712.999 401.459 712.999 379.592C712.999 357.992 716.999 337.592 724.999 318.392C732.999 298.926 744.066 281.859 758.199 267.192C772.599 252.259 789.266 240.659 808.199 232.392C827.132 223.859 847.532 219.592 869.399 219.592C887.799 219.592 905.266 222.526 921.799 228.392C938.332 234.259 953.799 243.192 968.199 255.192C970.599 257.059 971.799 259.726 971.799 263.192C971.799 266.392 970.732 269.326 968.599 271.992C966.466 274.392 963.532 275.592 959.799 275.592C958.732 275.592 957.666 275.459 956.599 275.192C955.532 274.659 954.466 274.126 953.399 273.592C952.332 272.792 951.132 271.859 949.799 270.792C939.132 261.192 926.999 254.259 913.399 249.992C899.799 245.726 885.132 243.592 869.399 243.592C851.532 243.592 834.599 247.326 818.599 254.792C802.599 261.992 788.466 271.992 776.199 284.792C763.932 297.326 754.332 311.726 747.399 327.992C740.466 344.259 736.999 361.459 736.999 379.592C736.999 398.259 740.466 415.859 747.399 432.392C754.332 448.926 763.799 463.459 775.799 475.992C788.066 488.526 802.199 498.392 818.199 505.592C834.199 512.526 851.266 515.992 869.399 515.992C885.132 515.992 899.799 513.592 913.399 508.792C927.266 503.992 940.199 496.659 952.199 486.792C954.332 484.926 956.866 484.259 959.799 484.792C962.732 485.326 965.266 486.659 967.399 488.792C969.532 490.926 970.599 493.726 970.599 497.192C970.599 498.792 970.466 500.259 970.199 501.592C969.932 502.926 969.132 504.259 967.799 505.592C954.732 518.659 939.532 527.726 922.199 532.792C905.132 537.592 887.532 539.992 869.399 539.992ZM1112.42 537.992C1091.36 537.992 1072.56 533.326 1056.02 523.992C1039.76 514.392 1026.96 501.192 1017.62 484.392C1008.29 467.592 1003.62 448.392 1003.62 426.792C1003.62 404.926 1008.02 385.726 1016.82 369.192C1025.62 352.392 1037.76 339.192 1053.22 329.592C1068.69 319.992 1086.42 315.192 1106.42 315.192C1126.16 315.192 1143.62 319.859 1158.82 329.192C1174.02 338.259 1185.89 350.926 1194.42 367.192C1202.96 383.192 1207.22 401.726 1207.22 422.792C1207.22 426.259 1206.16 429.059 1204.02 431.192C1201.89 433.059 1199.09 433.992 1195.62 433.992H1019.62V413.192H1202.02L1184.42 426.392C1184.96 409.059 1182.02 393.726 1175.62 380.392C1169.22 367.059 1160.02 356.659 1148.02 349.192C1136.29 341.459 1122.42 337.592 1106.42 337.592C1091.22 337.592 1077.62 341.459 1065.62 349.192C1053.89 356.659 1044.56 367.059 1037.62 380.392C1030.96 393.726 1027.62 409.192 1027.62 426.792C1027.62 444.126 1031.22 459.459 1038.42 472.792C1045.62 486.126 1055.62 496.659 1068.42 504.392C1081.22 511.859 1095.89 515.592 1112.42 515.592C1122.82 515.592 1133.22 513.859 1143.62 510.392C1154.29 506.659 1162.69 501.859 1168.82 495.992C1170.96 493.859 1173.49 492.792 1176.42 492.792C1179.62 492.526 1182.29 493.326 1184.42 495.192C1187.36 497.592 1188.82 500.259 1188.82 503.192C1189.09 506.126 1187.89 508.792 1185.22 511.192C1176.69 518.926 1165.49 525.326 1151.62 530.392C1138.02 535.459 1124.96 537.992 1112.42 537.992ZM1448.57 535.992C1445.11 535.992 1442.17 534.926 1439.77 532.792C1437.64 530.392 1436.57 527.459 1436.57 523.992V416.392C1436.57 398.792 1433.11 384.259 1426.17 372.792C1419.51 361.326 1410.31 352.792 1398.57 347.192C1387.11 341.326 1374.04 338.392 1359.37 338.392C1344.97 338.392 1332.04 341.192 1320.57 346.792C1309.11 352.126 1300.04 359.592 1293.37 369.192C1286.71 378.792 1283.37 389.592 1283.37 401.592H1263.37C1264.44 385.059 1269.37 370.259 1278.17 357.192C1286.97 343.859 1298.44 333.459 1312.57 325.992C1326.71 318.259 1342.31 314.392 1359.37 314.392C1378.57 314.392 1395.77 318.392 1410.97 326.392C1426.44 334.126 1438.57 345.592 1447.37 360.792C1456.17 375.726 1460.57 394.259 1460.57 416.392V523.992C1460.57 527.459 1459.37 530.392 1456.97 532.792C1454.84 534.926 1452.04 535.992 1448.57 535.992ZM1271.37 535.992C1267.91 535.992 1264.97 534.926 1262.57 532.792C1260.44 530.392 1259.37 527.459 1259.37 523.992V329.192C1259.37 325.459 1260.44 322.526 1262.57 320.392C1264.97 318.259 1267.91 317.192 1271.37 317.192C1275.11 317.192 1278.04 318.259 1280.17 320.392C1282.31 322.526 1283.37 325.459 1283.37 329.192V523.992C1283.37 527.459 1282.31 530.392 1280.17 532.792C1278.04 534.926 1275.11 535.992 1271.37 535.992ZM1618.11 535.992C1603.45 535.726 1590.38 532.392 1578.91 525.992C1567.45 519.326 1558.51 510.259 1552.11 498.792C1545.71 487.059 1542.51 473.859 1542.51 459.192V259.992C1542.51 256.259 1543.58 253.326 1545.71 251.192C1548.11 248.792 1551.05 247.592 1554.51 247.592C1558.25 247.592 1561.18 248.792 1563.31 251.192C1565.71 253.326 1566.91 256.259 1566.91 259.992V459.192C1566.91 474.659 1571.71 487.326 1581.31 497.192C1590.91 506.792 1603.31 511.592 1618.51 511.592H1627.31C1631.05 511.592 1633.98 512.792 1636.11 515.192C1638.51 517.326 1639.71 520.259 1639.71 523.992C1639.71 527.459 1638.51 530.392 1636.11 532.792C1633.98 534.926 1631.05 535.992 1627.31 535.992H1618.11ZM1511.31 346.792C1508.11 346.792 1505.45 345.859 1503.31 343.992C1501.45 341.859 1500.51 339.192 1500.51 335.992C1500.51 332.792 1501.45 330.259 1503.31 328.392C1505.45 326.259 1508.11 325.192 1511.31 325.192H1619.71C1622.91 325.192 1625.45 326.259 1627.31 328.392C1629.45 330.259 1630.51 332.792 1630.51 335.992C1630.51 339.192 1629.45 341.859 1627.31 343.992C1625.45 345.859 1622.91 346.792 1619.71 346.792H1511.31ZM1697.84 402.392C1699.44 385.326 1704.11 370.259 1711.84 357.192C1719.58 343.859 1729.58 333.459 1741.84 325.992C1754.11 318.526 1767.71 314.792 1782.64 314.792C1792.78 314.792 1800.64 315.992 1806.24 318.392C1811.84 320.792 1813.98 325.059 1812.64 331.192C1811.84 335.192 1809.98 337.592 1807.04 338.392C1804.11 339.192 1800.51 339.326 1796.24 338.792C1792.24 337.992 1787.71 337.592 1782.64 337.592C1769.31 337.592 1757.44 340.392 1747.04 345.992C1736.64 351.592 1728.51 359.326 1722.64 369.192C1716.78 378.792 1713.84 389.859 1713.84 402.392H1697.84ZM1701.84 535.992C1698.38 535.992 1695.44 534.926 1693.04 532.792C1690.91 530.392 1689.84 527.459 1689.84 523.992V329.192C1689.84 325.459 1690.91 322.526 1693.04 320.392C1695.44 318.259 1698.38 317.192 1701.84 317.192C1705.58 317.192 1708.51 318.259 1710.64 320.392C1712.78 322.526 1713.84 325.459 1713.84 329.192V523.992C1713.84 527.459 1712.78 530.392 1710.64 532.792C1708.51 534.926 1705.58 535.992 1701.84 535.992ZM1949.22 538.392C1927.88 538.392 1908.68 533.592 1891.62 523.992C1874.82 514.126 1861.48 500.792 1851.62 483.992C1842.02 466.926 1837.22 447.859 1837.22 426.792C1837.22 405.459 1842.02 386.392 1851.62 369.592C1861.48 352.526 1874.82 339.192 1891.62 329.592C1908.68 319.726 1927.88 314.792 1949.22 314.792C1970.55 314.792 1989.62 319.726 2006.42 329.592C2023.22 339.192 2036.42 352.526 2046.02 369.592C2055.88 386.392 2060.82 405.459 2060.82 426.792C2060.82 447.859 2055.88 466.926 2046.02 483.992C2036.42 500.792 2023.22 514.126 2006.42 523.992C1989.62 533.592 1970.55 538.392 1949.22 538.392ZM1949.22 515.992C1966.02 515.992 1980.95 512.126 1994.02 504.392C2007.35 496.392 2017.75 485.726 2025.22 472.392C2032.95 458.792 2036.82 443.459 2036.82 426.392C2036.82 409.592 2032.95 394.526 2025.22 381.192C2017.75 367.592 2007.35 356.926 1994.02 349.192C1980.95 341.192 1966.02 337.192 1949.22 337.192C1932.68 337.192 1917.75 341.192 1904.42 349.192C1891.08 356.926 1880.55 367.592 1872.82 381.192C1865.08 394.526 1861.22 409.726 1861.22 426.792C1861.22 443.592 1865.08 458.792 1872.82 472.392C1880.55 485.726 1891.08 496.392 1904.42 504.392C1917.75 512.126 1932.68 515.992 1949.22 515.992ZM2222.7 535.492C2213.04 535.492 2205.7 530.492 2200.7 520.492L2093.2 292.492C2090.54 287.159 2090.2 281.992 2092.2 276.992C2094.2 271.992 2098.2 268.159 2104.2 265.492C2109.2 262.826 2114.37 262.492 2119.7 264.492C2125.04 266.159 2129.04 269.492 2131.7 274.492L2233.7 494.492H2211.2L2311.7 274.492C2314.37 269.159 2318.54 265.659 2324.2 263.992C2329.87 262.326 2335.54 262.659 2341.2 264.992C2346.54 267.659 2350.2 271.659 2352.2 276.992C2354.2 281.992 2353.87 286.992 2351.2 291.992L2244.2 520.492C2239.54 530.492 2232.37 535.492 2222.7 535.492ZM2434.1 535.992C2427.1 535.992 2421.44 533.826 2417.1 529.492C2412.77 525.159 2410.6 519.659 2410.6 512.992V285.492C2410.6 278.492 2412.77 272.992 2417.1 268.992C2421.44 264.659 2427.1 262.492 2434.1 262.492C2440.77 262.492 2446.27 264.659 2450.6 268.992C2454.94 272.992 2457.1 278.492 2457.1 285.492V512.992C2457.1 519.659 2454.94 525.159 2450.6 529.492C2446.27 533.826 2440.77 535.992 2434.1 535.992ZM2433.6 214.992C2425.27 214.992 2418.1 211.992 2412.1 205.992C2406.1 199.992 2403.1 192.659 2403.1 183.992C2403.1 175.326 2406.1 168.159 2412.1 162.492C2418.44 156.492 2425.77 153.492 2434.1 153.492C2442.1 153.492 2449.1 156.492 2455.1 162.492C2461.44 168.159 2464.6 175.326 2464.6 183.992C2464.6 192.659 2461.6 199.992 2455.6 205.992C2449.6 211.992 2442.27 214.992 2433.6 214.992ZM2646.04 535.492C2636.38 535.492 2629.04 530.492 2624.04 520.492L2516.54 292.492C2513.88 287.159 2513.54 281.992 2515.54 276.992C2517.54 271.992 2521.54 268.159 2527.54 265.492C2532.54 262.826 2537.71 262.492 2543.04 264.492C2548.38 266.159 2552.38 269.492 2555.04 274.492L2657.04 494.492H2634.54L2735.04 274.492C2737.71 269.159 2741.88 265.659 2747.54 263.992C2753.21 262.326 2758.88 262.659 2764.54 264.992C2769.88 267.659 2773.54 271.659 2775.54 276.992C2777.54 281.992 2777.21 286.992 2774.54 291.992L2667.54 520.492C2662.88 530.492 2655.71 535.492 2646.04 535.492ZM2942.18 537.992C2915.51 537.992 2891.68 532.159 2870.68 520.492C2850.01 508.492 2833.68 492.159 2821.68 471.492C2810.01 450.492 2804.18 426.492 2804.18 399.492C2804.18 372.159 2810.01 348.159 2821.68 327.492C2833.68 306.492 2850.01 290.159 2870.68 278.492C2891.68 266.492 2915.51 260.492 2942.18 260.492C2968.85 260.492 2992.51 266.492 3013.18 278.492C3034.18 290.159 3050.51 306.492 3062.18 327.492C3074.18 348.159 3080.35 372.159 3080.68 399.492C3080.68 426.492 3074.68 450.492 3062.68 471.492C3050.68 492.159 3034.35 508.492 3013.68 520.492C2993.01 532.159 2969.18 537.992 2942.18 537.992ZM2942.18 496.992C2960.51 496.992 2976.68 492.826 2990.68 484.492C3004.68 476.159 3015.68 464.659 3023.68 449.992C3031.68 435.326 3035.68 418.492 3035.68 399.492C3035.68 380.492 3031.68 363.659 3023.68 348.992C3015.68 333.992 3004.68 322.326 2990.68 313.992C2976.68 305.659 2960.51 301.492 2942.18 301.492C2924.18 301.492 2908.01 305.659 2893.68 313.992C2879.68 322.326 2868.68 333.992 2860.68 348.992C2852.68 363.659 2848.68 380.492 2848.68 399.492C2848.68 418.492 2852.68 435.326 2860.68 449.992C2868.68 464.659 2879.68 476.159 2893.68 484.492C2908.01 492.826 2924.18 496.992 2942.18 496.992Z" fill="#12124A"/>
<path d="M620.874 414.93C625.513 419.508 621.929 427.384 615.431 426.894L159.312 392.459C154.459 392.093 151.452 387.009 153.467 382.58L283.962 95.7683C285.977 91.3389 291.786 90.2665 295.25 93.6841L620.874 414.93Z" fill="#A97B86"/>
<path d="M620.874 414.93C625.513 419.508 621.929 427.384 615.431 426.894L159.312 392.459C154.459 392.093 151.452 387.009 153.467 382.58L283.962 95.7683C285.977 91.3389 291.786 90.2665 295.25 93.6841L620.874 414.93Z" fill="#A97B86"/>
<path d="M626.837 499.237C632.426 503.121 629.746 511.89 622.941 511.985L246.286 517.275C243 517.321 240.125 515.075 239.373 511.876L164.444 192.835C162.977 186.59 169.984 181.825 175.253 185.486L626.837 499.237Z" fill="#D3BC8F"/>
<path d="M626.837 499.237C632.426 503.121 629.746 511.89 622.941 511.985L246.286 517.275C243 517.321 240.125 515.075 239.373 511.876L164.444 192.835C162.977 186.59 169.984 181.825 175.253 185.486L626.837 499.237Z" fill="#D3BC8F"/>
<path d="M664.514 508.073C668.214 512.712 664.825 519.562 658.892 519.435L446.642 514.906C440.617 514.777 437.56 507.6 441.642 503.166L553.448 381.732C556.356 378.574 561.395 378.753 564.071 382.109L664.514 508.073Z" fill="#3388DD"/>
<path d="M664.514 508.073C668.214 512.712 664.825 519.562 658.892 519.435L446.642 514.906C440.617 514.777 437.56 507.6 441.642 503.166L553.448 381.732C556.356 378.574 561.395 378.753 564.071 382.109L664.514 508.073Z" fill="#3388DD"/>
</svg>
